<svg version="1.1" xmlns="http://www.w3.org/2000/svg" viewBox="0 0 2983 1000">
<path d="M0 0 C2.61854734 1.79798873 3.34165855 3.11127618 5 6 C5.61761699 12.1968063 3.93235532 17.30603395 2.02734375 23.109375 C1.713311 24.09179169 1.39927826 25.07420837 1.07572937 26.08639526 C0.0407728 29.31130499 -1.00997225 32.53078572 -2.0625 35.75 C-2.79590372 38.01345467 -3.52913719 40.27696452 -4.26220703 42.54052734 C-22.02338538 97.17946722 -42.43151266 150.76108065 -64 204 C-63.32557358 203.83285995 -62.65114716 203.66571991 -61.95628357 203.49351501 C45.6751636 176.82877244 45.6751636 176.82877244 86 168.125 C86.74930786 167.96306152 87.49861572 167.80112305 88.27062988 167.63427734 C110.25285066 162.90585326 136.02122085 160.75328928 158 167 C158.79696289 167.22042969 159.59392578 167.44085938 160.41503906 167.66796875 C197.80239016 178.31385855 227.16165077 201.93971584 246.1640625 235.77734375 C262.48940405 266.14077039 266.82763376 301.40847471 258.00390625 334.765625 C252.53843376 352.54259436 243.68580558 367.70846042 232.73583984 382.62597656 C230.10982785 386.217445 227.55692307 389.85920587 225 393.5 C224.01851441 394.88952444 223.03674059 396.27884534 222.0546875 397.66796875 C216.93771469 404.91729099 211.85822437 412.1929324 206.7734375 419.46484375 C205.03766367 421.9461592 203.30037486 424.42640574 201.5625 426.90625 C198.64687407 431.06686191 195.73383613 435.22927413 192.82275391 439.39306641 C191.59370952 441.15086657 190.36420725 442.90834666 189.13427734 444.66552734 C178.37539777 460.04363349 167.80280396 475.54364988 157.29107666 491.09106445 C155.09524472 494.33773583 152.89705368 497.58280939 150.69921875 500.828125 C144.79436746 509.54862959 138.89626788 518.2736902 133 527 C132.43138245 527.84143555 131.86276489 528.68287109 131.2769165 529.54980469 C118.03514542 549.1457858 104.80421419 568.74807083 91.70858765 588.44210815 C82.22832487 602.69655258 72.6534322 616.88682823 63.0703125 631.07226562 C62.48275177 631.9422821 61.89519104 632.81229858 61.28982544 633.7086792 C60.13872143 635.41285247 58.9870997 637.11667616 57.83493042 638.82012939 C55.24150897 642.65859628 52.66055858 646.50380694 50.11767578 650.37597656 C49.6711969 651.05397308 49.22471802 651.7319696 48.76470947 652.43051147 C47.95551826 653.66203538 47.15003332 654.89600862 46.34954834 656.13320923 C32.60357759 677.03919353 10.82047249 691.52354116 -13.5534668 696.86621094 C-36.76099435 701.21293317 -59.12907769 697.52670016 -80 687 C-81.04671875 686.47664062 -82.0934375 685.95328125 -83.171875 685.4140625 C-104.73431219 673.72014815 -120.87209205 653.44000386 -128.4375 630.1875 C-128.99143445 628.1336426 -129.51442209 626.0710837 -130 624 C-130.22300781 623.08734375 -130.44601563 622.1746875 -130.67578125 621.234375 C-135.15797331 599.40274564 -130.02135267 577.14528256 -126.39060974 555.57826614 C-125.6290968 551.03505736 -124.88531912 546.48894595 -124.13964844 541.94311523 C-122.83255677 533.98966133 -121.51087918 526.0387269 -120.18193245 518.08889866 C-118.97570877 510.86794665 -117.7915085 503.64354442 -116.61328125 496.41796875 C-115.99354381 492.63258903 -115.37222628 488.84747134 -114.75 485.0625 C-114.53982742 483.78110138 -114.53982742 483.78110138 -114.32540894 482.47381592 C-113.94451923 480.16030796 -113.55915769 477.84760135 -113.171875 475.53515625 C-112.9665918 474.301604 -112.76130859 473.06805176 -112.54980469 471.79711914 C-112 469 -112 469 -111 467 C-109.06903076 466.32411194 -109.06903076 466.32411194 -106.50292969 465.71899414 C-105.54392761 465.48857925 -104.58492554 465.25816437 -103.59686279 465.02076721 C-102.54911682 464.77801559 -101.50137085 464.53526398 -100.421875 464.28515625 C-98.80554169 463.90054482 -98.80554169 463.90054482 -97.15655518 463.50816345 C-93.68949424 462.68515165 -90.21983107 461.87374477 -86.75 461.0625 C-84.45555128 460.51963149 -82.16127809 459.97602053 -79.8671875 459.43164062 C-74.492023 458.1580305 -69.11397143 456.89720748 -63.73461914 455.64141846 C-61.36491296 455.08559214 -58.99735546 454.52193797 -56.63085938 453.95263672 C-54.90319336 453.54102295 -54.90319336 453.54102295 -53.140625 453.12109375 C-52.21282227 452.89736084 -51.28501953 452.67362793 -50.32910156 452.44311523 C-48 452 -48 452 -44 452 C-44.61251322 459.73666633 -45.86892959 467.27087421 -47.31665039 474.89086914 C-47.67622599 476.81265101 -48.03579708 478.73443373 -48.39519966 480.65624797 C-48.77883766 482.70389106 -49.16442377 484.75115955 -49.55043221 486.79835701 C-50.35930678 491.09145812 -51.15934045 495.38617817 -51.95762634 499.68125916 C-54.22749875 511.88882849 -56.5019457 524.09550083 -58.80102539 536.29760742 C-60.07338981 543.05093349 -61.33464976 549.80623694 -62.58387941 556.56388181 C-63.24299261 560.12672063 -63.90749805 563.68834794 -64.58586311 567.24757576 C-71.02457825 594.13964108 -71.02457825 594.13964108 -65 620 C-59.2000162 628.28149586 -51.02444839 634.11768 -41 636 C-28.62333133 636.98313037 -19.98406242 635.8160297 -10.27099609 628.07788086 C-6.50398468 624.63119906 -3.95315253 620.6140713 -1.25 616.3125 C0.12445753 614.19105469 1.49951141 612.06999569 2.875 609.94921875 C3.66807364 608.71539944 4.46103621 607.48150875 5.25390625 606.24755859 C10.37678976 598.29874182 15.6179693 590.42648928 20.82922363 582.53549194 C22.7031005 579.69606533 24.57428388 576.85488627 26.44433594 574.01293945 C32.43126301 564.91517049 38.43667764 555.83065128 44.48542786 546.77386475 C50.67527968 537.50011804 56.80475735 528.1865666 62.9375 518.875 C64.21354167 516.93815104 65.48958333 515.00130208 66.765625 513.06445312 C88.76551907 479.67269812 88.76551907 479.67269812 110.59423828 446.16894531 C111.99704109 444.00456529 113.40256737 441.84197449 114.80859375 439.6796875 C121.11715821 429.96812603 127.3231092 420.19439849 133.49267578 410.39404297 C135.95065627 406.49009793 138.41236321 402.58850906 140.875 398.6875 C141.36693848 397.90802002 141.85887695 397.12854004 142.36572266 396.32543945 C145.58594188 391.2270188 148.82132161 386.13847166 152.06420898 381.05444336 C160.12124057 368.41814651 168.14273087 355.76168844 176 343 C176.48436523 342.22366211 176.96873047 341.44732422 177.46777344 340.64746094 C186.76920962 325.65237719 191.50558507 310.81655803 187.4375 293.1875 C183.28430322 277.05821373 173.59179091 263.56568932 159.6015625 254.4609375 C152.29410034 250.35734764 144.36858456 246.98453936 136 246 C134.50339844 245.82210937 134.50339844 245.82210937 132.9765625 245.640625 C123.64309405 245.11422548 115.15078281 246.90651527 106.08984375 249.046875 C104.72174292 249.36367561 103.3534359 249.67958689 101.98493958 249.99467468 C99.1075643 250.65768139 96.2309639 251.32390854 93.3548584 251.99240112 C86.34197203 253.61897123 79.31765258 255.19483817 72.29296875 256.76953125 C71.57821758 256.92983385 70.86346642 257.09013645 70.12705612 257.25529671 C35.99911817 264.9047726 1.8112539 272.19435721 -32.48589706 279.04760361 C-35.3202565 279.61405934 -38.15435701 280.18179658 -40.98843384 280.74966431 C-59.58826584 284.4720761 -78.20440824 288.10304089 -96.86717606 291.49747849 C-98.53494269 291.80096335 -100.20241346 292.10607963 -101.8695488 292.41301346 C-134.0202225 298.31519875 -134.0202225 298.31519875 -148.81640625 288.65625 C-155.91093224 283.27507107 -160.49229584 275.56690768 -162.8125 267 C-163.65200041 253.5679934 -161.2776938 244.67514052 -154.6875 232.875 C-153.74753174 231.16256104 -153.74753174 231.16256104 -152.78857422 229.41552734 C-150.87542583 225.93442357 -148.93949231 222.46649751 -147 219 C-146.44812012 218.01064453 -145.89624023 217.02128906 -145.32763672 216.00195312 C-141.58959047 209.31293921 -137.80032902 202.65377112 -134 196 C-132.71866517 193.75135042 -131.43741856 191.50265057 -130.15625 189.25390625 C-104.70552885 144.60791297 -104.70552885 144.60791297 -95.37646484 129.26513672 C-93.66010866 126.44066835 -91.9494542 123.61276777 -90.23828125 120.78515625 C-71.87655214 90.45912363 -53.26261616 60.33298256 -33.625 30.8125 C-33.16841003 30.12493622 -32.71182007 29.43737244 -32.24139404 28.72897339 C-29.18745348 24.1344258 -26.10812231 19.55806988 -23 15 C-22.54782104 14.33498474 -22.09564209 13.66996948 -21.62976074 12.98480225 C-20.29235527 11.02790259 -18.94167187 9.08095239 -17.5859375 7.13671875 C-16.98224838 6.25159355 -16.98224838 6.25159355 -16.36636353 5.34858704 C-11.85827584 -1.04111717 -7.39950699 -2.23828503 0 0 Z " fill="#FFFFFF" transform="translate(325,209)"/>
<path d="M0 0 C4.21553047 3.44221454 8.10576656 7.20355381 12 11 C12.65613281 11.58265625 13.31226563 12.1653125 13.98828125 12.765625 C29.88797097 27.2398253 37.69747503 50.78462945 39.27124023 71.58496094 C39.65590094 86.60647857 36.91231444 101.24291995 34.43795013 116.00016022 C33.80355716 119.80168385 33.18524019 123.60582406 32.56494141 127.40966797 C31.42836857 134.36395695 30.27732228 141.31575656 29.11953735 148.26654243 C28.0528678 154.67309253 26.99877378 161.08166209 25.9473114 167.49072266 C24.92766509 173.70288609 23.90247342 179.91412679 22.875 186.125 C22.68350372 187.28310181 22.49200745 188.44120361 22.29470825 189.63439941 C21.75932823 192.86353961 21.22028237 196.09204174 20.6796875 199.3203125 C20.52289017 200.2669577 20.36609283 201.21360291 20.20454407 202.18893433 C20.05953964 203.04971588 19.91453522 203.91049744 19.76513672 204.79736328 C19.64065155 205.54188751 19.51616638 206.28641174 19.38790894 207.05349731 C19 209 19 209 18 212 C15.34912109 212.96386719 15.34912109 212.96386719 11.7734375 213.796875 C11.1257843 213.95142151 10.4781311 214.10596802 9.81085205 214.26519775 C7.66834726 214.77290843 5.5219913 215.26164104 3.375 215.75 C1.89218525 216.09667347 0.40960255 216.44434085 -1.07275391 216.79296875 C-4.93529093 217.69740111 -8.80154843 218.58472158 -12.66918945 219.46704102 C-14.96457657 219.99190014 -17.25883156 220.52142873 -19.55273438 221.05273438 C-23.82523678 222.04214123 -28.09951083 223.0235854 -32.375 224 C-33.04525208 224.15351929 -33.71550415 224.30703857 -34.40606689 224.46520996 C-36.2985121 224.89719193 -38.19219807 225.32372748 -40.0859375 225.75 C-41.1589209 225.99234375 -42.2319043 226.2346875 -43.33740234 226.484375 C-46 227 -46 227 -49 227 C-48.43121376 216.57268674 -46.35556609 206.41175559 -44.4296875 196.171875 C-44.06626773 194.21845161 -43.70333254 192.26493801 -43.34085083 190.31134033 C-42.38452132 185.16348774 -41.42240425 180.01673468 -40.45880127 174.87023926 C-39.50614929 169.77860575 -38.55768868 164.686193 -37.609375 159.59375 C-37.33078833 158.09839848 -37.33078833 158.09839848 -37.04657364 156.57283783 C-36.11391386 151.56482989 -35.1831968 146.5564704 -34.25579834 141.54748535 C-34.07363895 140.56371666 -33.89147957 139.57994797 -33.7038002 138.5663681 C-33.33960846 136.59919625 -32.97556053 134.63199777 -32.61166 132.66477203 C-31.55725679 126.97391897 -30.48639586 121.28649321 -29.4011898 115.60143661 C-28.72968692 112.07056527 -28.0697991 108.53758566 -27.41238785 105.00406647 C-27.10789652 103.38182535 -26.7984683 101.76050073 -26.48339462 100.14028168 C-22.23022083 79.47894763 -22.23022083 79.47894763 -28 60 C-28.42410156 59.30519531 -28.84820312 58.61039062 -29.28515625 57.89453125 C-34.32763201 50.40807002 -41.49503914 45.73080895 -50.203125 43.47265625 C-59.77778215 41.85459268 -69.39337764 42.15958382 -78 47 C-83.34349396 50.95489403 -87.01534798 55.40377119 -90.59765625 60.95703125 C-91.10483185 61.72413925 -91.61200745 62.49124725 -92.134552 63.28160095 C-93.78701421 65.7855965 -95.42466577 68.29891758 -97.0625 70.8125 C-98.22263602 72.57590511 -99.38386543 74.33859133 -100.54614258 76.10058594 C-102.90863294 79.6840789 -105.26618812 83.27074135 -107.62011719 86.85986328 C-111.99123439 93.51743721 -116.42088573 100.13543436 -120.85168457 106.75335693 C-131.16276427 122.16532579 -141.34589276 137.66093712 -151.51539612 153.16651917 C-156.75672404 161.15672655 -162.01207594 169.13769035 -167.26663208 177.11920166 C-188.24579496 208.98624769 -188.24579496 208.98624769 -209 241 C-209.58571777 241.91007812 -210.17143555 242.82015625 -210.77490234 243.7578125 C-218.72025677 256.11232454 -226.59119718 268.50904382 -234.35449219 280.97875977 C-238.8491751 288.18755778 -243.4101849 295.35146296 -248 302.5 C-250.66866243 306.66539151 -253.33465921 310.83248249 -256 315 C-256.67160156 316.04816895 -257.34320313 317.09633789 -258.03515625 318.17626953 C-278.78399629 349.27303123 -278.78399629 349.27303123 -280.875 385.5 C-278.18461224 396.01011295 -273.11869062 404.87557825 -266 413 C-265.20142578 413.92232422 -265.20142578 413.92232422 -264.38671875 414.86328125 C-253.60412214 426.46936973 -238.22844784 432.78871973 -222.5625 433.5 C-214.35821393 433.5664912 -206.66958861 431.75920424 -198.7265625 429.87890625 C-197.35080444 429.55983712 -195.97483862 429.24166259 -194.59867859 428.92433167 C-191.77240435 428.27192842 -188.94700504 427.61592502 -186.1222229 426.95709229 C-179.94965711 425.52025847 -173.76599357 424.13291392 -167.58203125 422.74609375 C-165.80233948 422.3462175 -165.80233948 422.3462175 -163.98669434 421.93826294 C-113.83049079 410.68242986 -63.51779238 400.28075971 -13.02286148 390.65710449 C-10.58664269 390.19210807 -8.15086774 389.72484649 -5.71517944 389.25708008 C-1.8826513 388.52181265 1.95130603 387.79449129 5.78649521 387.07323647 C7.18820751 386.8086614 8.58949891 386.54184381 9.99029922 386.27248192 C26.30430024 383.14109531 41.09551553 380.6829796 55.74609375 390.20703125 C62.90476614 395.90171171 67.97181903 404.05771878 69.53125 413.0703125 C70.93608765 426.57591085 67.5434076 435.90386538 60.8125 447.5 C60.08972796 448.77213385 59.36856577 450.04518354 58.64892578 451.3190918 C57.16858057 453.93600333 55.68062803 456.54835698 54.18701172 459.15771484 C51.48177325 463.89489659 48.85525715 468.67398065 46.2253418 473.45336914 C39.8251629 485.07232433 33.22936007 496.56616633 26.51171875 508.00390625 C23.52753823 513.08674144 20.58278154 518.19124663 17.6484375 523.30297852 C4.13479669 546.83504319 -9.68599894 570.16865884 -24.18066406 593.11132812 C-26.06570374 596.10432187 -27.93703144 599.10550594 -29.8046875 602.109375 C-41.53061554 620.96599561 -53.6021214 639.57852647 -66 658 C-66.49838379 658.7439502 -66.99676758 659.48790039 -67.51025391 660.25439453 C-68.97980131 662.44469052 -70.4573462 664.62936146 -71.9375 666.8125 C-72.37400879 667.46444336 -72.81051758 668.11638672 -73.26025391 668.78808594 C-79.31339682 677.65669841 -79.31339682 677.65669841 -84 680 C-87.79703187 680.17157511 -91.49708155 680.02377702 -94.703125 677.83984375 C-97.12552596 675.22949789 -97.97884162 673.27522429 -98.25 669.74804688 C-97.98271687 665.74088807 -97.1578335 662.48009242 -95.9375 658.65625 C-95.71534821 657.95216507 -95.49319641 657.24808014 -95.26431274 656.5226593 C-94.52054301 654.17809734 -93.7610894 651.83899281 -93 649.5 C-92.45598865 647.80826041 -91.91221219 646.11644526 -91.36865234 644.42456055 C-89.60020847 638.9427278 -87.80229955 633.47077855 -86 628 C-85.70484497 627.10122131 -85.40968994 626.20244263 -85.10559082 625.27642822 C-70.11733376 579.66701189 -53.38433773 534.63840665 -35.28173828 490.17529297 C-34.92237183 489.29042709 -34.56300537 488.40556122 -34.19274902 487.49388123 C-33.52613981 485.85501491 -32.85633451 484.21744352 -32.18273926 482.58143616 C-30.57034673 478.91079626 -30.57034673 478.91079626 -30 475 C-30.84680328 475.21503174 -31.69360657 475.43006348 -32.56607056 475.65161133 C-70.45320565 485.26505209 -108.35272707 494.80268003 -146.46404266 503.49285889 C-148.66280979 503.99436849 -150.86124054 504.49733195 -153.05963135 505.00048828 C-162.02895389 507.05052065 -171.00748693 509.05373572 -180 511 C-181.02272003 511.22324951 -182.04544006 511.44649902 -183.09915161 511.67651367 C-194.84448321 514.20841484 -206.04368984 515.68358439 -218.0625 515.5 C-218.78847382 515.49446106 -219.51444763 515.48892212 -220.26242065 515.48321533 C-232.17463905 515.37741576 -243.54211796 514.41940881 -255 511 C-255.72880371 510.78569336 -256.45760742 510.57138672 -257.20849609 510.35058594 C-294.12412555 499.14128762 -322.75901684 473.74538485 -340.93359375 440.01953125 C-356.78416839 409.67617283 -359.93899831 372.5017091 -349.75 339.890625 C-343.97693833 322.68120205 -334.45757212 307.59179575 -323.62158203 293.17773438 C-321.03652413 289.70608179 -318.54887694 286.16767275 -316.0625 282.625 C-315.57523438 281.93301514 -315.08796875 281.24103027 -314.5859375 280.52807617 C-309.57072466 273.40218548 -304.5752984 266.26237165 -299.58203125 259.12109375 C-297.18626461 255.69473495 -294.78772769 252.2703435 -292.38671875 248.84765625 C-285.67470123 239.27707022 -278.99758951 229.68452846 -272.39501953 220.03808594 C-270.94021911 217.91266174 -269.48383518 215.78832819 -268.02734375 213.6640625 C-251.71799288 189.86538387 -235.55918296 165.9656783 -219.42907715 142.04533386 C-215.83319089 136.71396426 -212.23245984 131.38590872 -208.62750244 126.06066895 C-195.55014423 106.74201645 -182.56428585 87.36935136 -169.75 67.875 C-153.90362641 43.77374335 -153.90362641 43.77374335 -146.1875 32.375 C-145.55489258 31.4351123 -144.92228516 30.49522461 -144.27050781 29.52685547 C-127.91313807 5.50838265 -107.64169849 -11.53476223 -79 -18 C-51.05590029 -23.13399613 -22.92679502 -16.54540749 0 0 Z " fill="#FFFFFF" transform="translate(391,112)"/>
<path d="M0 0 C0.86244324 0.00060425 1.72488647 0.0012085 2.61346436 0.00183105 C45.99266156 0.08425324 87.52509524 7.01641894 119.6875 38.375 C130.68097893 49.48350785 138.91124207 62.36011622 146.0625 76.1875 C146.37670898 76.78997559 146.69091797 77.39245117 147.01464844 78.01318359 C154.4818796 92.53722714 159.36444936 108.08692111 162.875 124 C163.16721436 125.32161133 163.16721436 125.32161133 163.46533203 126.66992188 C166.44774483 140.99601404 167.41303833 155.0198176 167.37817383 169.61254883 C167.37502328 172.35473829 167.39854553 175.09583403 167.42382812 177.83789062 C167.48169825 193.98825976 165.73238 209.97905131 161.875 225.6875 C161.6677832 226.53731445 161.46056641 227.38712891 161.24707031 228.26269531 C155.09531192 252.29603548 144.14495864 273.20118611 128.3125 292.1875 C127.62244873 293.01652832 127.62244873 293.01652832 126.91845703 293.86230469 C124.51192519 296.69052754 122.14884142 299.11070951 119.0625 301.1875 C120.31654085 305.29830158 121.8359344 308.81012997 124.0390625 312.49609375 C124.62413574 313.48367676 125.20920898 314.47125977 125.81201172 315.48876953 C126.43092285 316.52372559 127.04983398 317.55868164 127.6875 318.625 C128.95487321 320.77631481 130.22050231 322.92865806 131.484375 325.08203125 C132.09732422 326.12568848 132.71027344 327.1693457 133.34179688 328.24462891 C135.58316742 332.07798313 137.7968367 335.9219936 139.9375 339.8125 C140.55367187 340.91851563 141.16984375 342.02453125 141.8046875 343.1640625 C143.22318059 346.57373222 143.69774627 348.54216371 143.0625 352.1875 C134.07880637 363.50527478 116.33692874 368.06013396 103.0625 372.1875 C102.34384766 372.4148584 101.62519531 372.6422168 100.88476562 372.87646484 C93.16936741 375.25959236 85.82038574 376.53667254 77.75 376.625 C77.02594971 376.63523193 76.30189941 376.64546387 75.5559082 376.65600586 C70.54252414 376.57038375 70.54252414 376.57038375 68.4370575 374.89099121 C66.09507714 371.98857137 65.24979831 368.41639055 64.14453125 364.90625 C63.88242355 364.0963562 63.62031586 363.2864624 63.3502655 362.45202637 C62.79890909 360.74203586 62.2519969 359.03060689 61.70922852 357.31787109 C60.8771025 354.69412931 60.03057469 352.07537697 59.18164062 349.45703125 C58.64758324 347.79454501 58.11435188 346.13179315 57.58203125 344.46875 C57.32895706 343.68431519 57.07588287 342.89988037 56.81513977 342.0916748 C55.84624823 339.02043949 55.0625 336.42842934 55.0625 333.1875 C53.85980469 333.45304687 52.65710937 333.71859375 51.41796875 333.9921875 C0.28491823 344.78898263 -57.9637151 340.27876959 -102.96679688 311.90820312 C-115.05016745 303.94667267 -125.11724233 294.66504037 -133.9375 283.1875 C-134.61683594 282.33542969 -135.29617187 281.48335937 -135.99609375 280.60546875 C-147.33164938 265.86703677 -154.07630283 248.05481486 -158.6875 230.1875 C-158.88625732 229.42985352 -159.08501465 228.67220703 -159.28979492 227.89160156 C-162.90282282 213.11736831 -163.31043397 198.30973622 -163.25 183.1875 C-163.24817719 182.24006927 -163.24635437 181.29263855 -163.24447632 180.3164978 C-163.19734727 165.74932388 -162.60586796 151.54094547 -159.9375 137.1875 C-159.76057617 136.1984668 -159.58365234 135.20943359 -159.40136719 134.19042969 C-156.91270329 120.52641843 -153.59152388 107.27523447 -148.9375 94.1875 C-148.70981934 93.54055176 -148.48213867 92.89360352 -148.24755859 92.22705078 C-136.16488687 58.50246523 -114.21970329 31.21349593 -81.75 15.5 C-55.65581996 3.31469532 -28.52176445 -0.03692138 0 0 Z M-53.9375 102.1875 C-54.52660156 102.72632813 -55.11570312 103.26515625 -55.72265625 103.8203125 C-73.0764067 121.44104373 -75.36720393 152.19570991 -75.25 175.4375 C-75.24784485 176.2075235 -75.2456897 176.977547 -75.24346924 177.77090454 C-75.15571676 197.3125696 -74.26166636 220.52923203 -59.4609375 235.20703125 C-43.73062898 247.5526449 -17.7054336 248.05246461 1.3125 248.875 C2.38943115 248.92358154 3.4663623 248.97216309 4.57592773 249.0222168 C11.81413467 249.28204987 18.86095009 248.94755591 26.0625 248.1875 C25.53849609 247.00994141 25.53849609 247.00994141 25.00390625 245.80859375 C20.0625 234.39996459 20.0625 234.39996459 20.0625 229.1875 C22.4726606 226.01975342 26.04004098 224.30720004 29.453125 222.39453125 C30.07596375 222.04363937 30.69880249 221.6927475 31.34051514 221.33122253 C32.65688487 220.59303042 33.97489922 219.85776438 35.29443359 219.12524414 C37.2996869 218.0071444 39.29217606 216.86831119 41.28515625 215.72851562 C42.5695791 215.0117051 43.85471368 214.29616811 45.140625 213.58203125 C45.72942444 213.24146194 46.31822388 212.90089264 46.92486572 212.55000305 C51.11386064 210.26856953 54.32834256 209.6992766 59.0625 210.1875 C63.90941962 213.76498829 66.36886539 218.92631581 69.0625 224.1875 C83.34204685 207.34177371 83.01301944 173.82978409 82.0625 153.1875 C80.46727802 134.50520235 73.46698687 116.36966411 59.66015625 103.375 C34.7812839 82.42437066 -29.23735475 78.34301798 -53.9375 102.1875 Z " fill="#B2FF00" transform="translate(2407.9375,315.8125)"/>
<path d="M0 0 C1.29998114 0.00017939 1.29998114 0.00017939 2.62622452 0.0003624 C29.24031044 0.00501425 55.82753955 0.08073931 82.375 2.1875 C83.65987305 2.28933594 84.94474609 2.39117187 86.26855469 2.49609375 C116.24604762 5.04335515 150.66520257 8.63703267 172.4140625 31.80078125 C175.86097355 35.99612517 178.6891982 40.4768005 181.375 45.1875 C181.76429688 45.86554688 182.15359375 46.54359375 182.5546875 47.2421875 C189.20856507 59.67307506 191.77114295 73.39826373 191.6875 87.375 C191.68186035 88.3760376 191.6762207 89.3770752 191.67041016 90.40844727 C191.27542371 114.79397171 182.73519353 136.79641644 165.375 154.1875 C164.77429687 154.79980469 164.17359375 155.41210938 163.5546875 156.04296875 C153.60892569 165.45053998 136.47930439 176.1875 122.375 176.1875 C122.375 176.8475 122.375 177.5075 122.375 178.1875 C123.550625 178.496875 124.72625 178.80625 125.9375 179.125 C147.5016714 186.40333101 165.75370125 204.5925118 176.0390625 224.390625 C180.45731177 233.57535994 183.75343209 242.9410471 184.375 253.1875 C184.42785156 254.033125 184.48070313 254.87875 184.53515625 255.75 C185.15514272 275.58956696 179.32197271 293.78170188 165.625 308.375 C130.45591057 341.9271198 70.44222442 340.74795663 25.21191406 340.5100708 C21.7750644 340.49669122 18.33834556 340.50190746 14.90148163 340.5069294 C-2.19797465 340.52583297 -19.2546718 340.28178505 -36.328125 339.29296875 C-37.36307728 339.23489768 -37.36307728 339.23489768 -38.41893768 339.17565346 C-63.94682723 337.70246475 -63.94682723 337.70246475 -68.625 334.1875 C-71.95614649 328.45415387 -72.02900475 323.37022132 -71.93115234 316.85229492 C-71.92796116 315.82704775 -71.92476997 314.80180058 -71.92148209 313.74548531 C-71.90729454 310.32356959 -71.87157042 306.9022232 -71.8359375 303.48046875 C-71.82142224 301.02988949 -71.80830247 298.57930161 -71.79647827 296.12870789 C-71.76865743 290.8799726 -71.73202749 285.63137521 -71.68835449 280.38275146 C-71.62667753 272.89404649 -71.58978659 265.40536754 -71.55996561 257.91647553 C-71.50633573 244.46577681 -71.42990001 231.01533737 -71.33742142 217.56485176 C-71.32747526 216.11541883 -71.31754053 214.66598582 -71.30761719 213.21655273 C-71.30269595 212.49816408 -71.29777471 211.77977543 -71.29270434 211.03961742 C-71.25837898 205.94887629 -71.22950916 200.85812195 -71.203125 195.76733398 C-71.04034995 164.63769074 -70.74482187 133.54586941 -69.3265686 102.44160461 C-68.16516081 76.79871013 -67.13099176 50.75827523 -69.9262085 25.19703674 C-71.46349435 11.12270703 -71.46349435 11.12270703 -67.625 6.1875 C-62.5560635 1.46814533 -56.26177256 0.83822413 -49.6015625 0.57421875 C-48.75695465 0.53689133 -47.9123468 0.4995639 -47.04214478 0.46110535 C-31.37461679 -0.13636583 -15.67635295 -0.00954651 0 0 Z M22.375 72.1875 C22.375 90.3375 22.375 108.4875 22.375 127.1875 C25.10817894 128.55408947 27.51145835 128.51257393 30.5625 128.72265625 C31.81933594 128.80966797 33.07617188 128.89667969 34.37109375 128.98632812 C35.02964355 129.02959229 35.68819336 129.07285645 36.36669922 129.11743164 C38.33990514 129.24768338 40.31254238 129.38646028 42.28515625 129.52539062 C61.9808495 130.85780527 86.802558 132.22593772 103.49609375 119.8671875 C107.57445956 116.22124717 109.95456739 112.87151175 110.8125 107.39453125 C111.15216481 99.18950313 109.74501327 91.44359434 104.5625 84.8984375 C89.76171976 70.36973042 66.53152868 70.92081767 47.1875 70.9375 C46.03178497 70.93839127 46.03178497 70.93839127 44.85272217 70.93930054 C37.2575151 70.96164354 29.93959098 71.24192613 22.375 72.1875 Z M31.0625 210.5625 C30.02480469 210.60552246 28.98710937 210.64854492 27.91796875 210.69287109 C22.98357234 210.75838346 22.98357234 210.75838346 18.375 212.1875 C18.375 228.6875 18.375 245.1875 18.375 262.1875 C30.59636243 263.0382438 30.59636243 263.0382438 42.80859375 263.390625 C43.61506851 263.39632507 44.42154327 263.40202515 45.25245667 263.40789795 C46.93171943 263.41720106 48.61099923 263.42382186 50.2902832 263.42773438 C52.80648428 263.43747671 55.32187814 263.46865697 57.83789062 263.5 C71.2732125 263.58771647 87.09399255 263.4602388 98.375 255.1875 C103.58982504 249.68161496 104.7339026 244.45334602 104.65625 237.10546875 C103.97309864 230.01777343 100.39187547 224.09035557 95.375 219.1875 C78.35660068 207.52454103 50.61227903 209.74891204 31.0625 210.5625 Z " fill="#B2FF00" transform="translate(2673.625,318.8125)"/>
<path d="M0 0 C0.67109299 -0.00233643 1.34218597 -0.00467285 2.03361511 -0.00708008 C4.25586737 -0.00869497 6.47603823 0.02543009 8.69799805 0.06005859 C10.27328244 0.06686928 11.84857716 0.07157862 13.4238739 0.0743103 C17.59259693 0.08773785 21.76047124 0.13192165 25.92889404 0.18188477 C29.23135497 0.21660979 32.53372189 0.2302296 35.83633137 0.24242878 C107.70916754 0.5088318 107.70916754 0.5088318 115.1472168 3.58349609 C118.96604793 8.44308618 121.55175758 14.21352244 124.0065918 19.84912109 C124.51678864 21.0099118 124.51678864 21.0099118 125.03729248 22.19415283 C128.52392969 30.25219027 131.52633327 38.47265712 134.472229 46.74050903 C139.01306024 59.46966799 143.66001251 72.13423551 148.7722168 84.64599609 C171.47612072 140.44969787 190.94744675 197.54923979 210.18139648 254.61816406 C212.12337024 260.37912766 214.07111956 266.13811657 216.0222168 271.89599609 C216.3291748 272.80355652 216.63613281 273.71111694 216.95239258 274.6461792 C220.01736461 283.69367815 223.1340597 292.70892013 226.5612793 301.62646484 C226.8268161 302.31742752 227.09235291 303.0083902 227.36593628 303.72029114 C228.58519256 306.87709257 229.82433379 310.02346767 231.08813477 313.1628418 C231.72066162 314.76325317 231.72066162 314.76325317 232.3659668 316.39599609 C232.921875 317.76691406 232.921875 317.76691406 233.48901367 319.16552734 C234.21137596 321.81919059 234.24946392 323.07663978 233.1472168 325.58349609 C226.69335257 329.54382187 220.58869169 329.74798319 213.2487793 329.78662109 C212.361577 329.79345413 211.47437469 329.80028717 210.56028748 329.80732727 C207.63089264 329.82457826 204.70165977 329.83068277 201.7722168 329.83349609 C200.26738235 329.83650223 200.26738235 329.83650223 198.73214722 329.83956909 C182.51647521 329.84742374 166.38810079 329.2247037 150.2097168 328.14599609 C149.19653381 328.07860229 148.18335083 328.0112085 147.13946533 327.94177246 C144.25745819 327.74647172 141.37605857 327.54445131 138.49487305 327.33740234 C137.64888046 327.27692215 136.80288788 327.21644196 135.93125916 327.15412903 C131.2993847 326.80413827 126.73754026 326.29647022 122.1472168 325.58349609 C119.98308213 319.99079745 118.11570209 314.38894654 116.44799805 308.63037109 C116.2080864 307.80772766 115.96817474 306.98508423 115.72099304 306.13751221 C115.21944168 304.41359639 114.71952755 302.68920346 114.22119141 300.96435547 C113.457297 298.32513579 112.68433714 295.68867948 111.91088867 293.05224609 C111.42270637 291.37011456 110.93505723 289.68782817 110.44799805 288.00537109 C110.21679764 287.21990906 109.98559723 286.43444702 109.74739075 285.62518311 C108.7401477 282.11056419 108.1472168 279.26920257 108.1472168 275.58349609 C81.5619282 274.76775686 54.99315904 274.49048741 28.3972168 274.52099609 C27.64566566 274.52185211 26.89411453 274.52270813 26.11978912 274.52359009 C16.79557448 274.53499789 7.47139628 274.55509934 -1.8527832 274.58349609 C-2.09367676 275.57462402 -2.33457031 276.56575195 -2.58276367 277.58691406 C-4.81775028 286.70174052 -7.2729493 295.71980853 -9.9777832 304.70849609 C-10.32454102 305.87380859 -10.67129883 307.03912109 -11.02856445 308.23974609 C-15.50751658 323.23822947 -15.50751658 323.23822947 -16.8527832 324.58349609 C-22.23811648 325.53731851 -27.60247151 325.86577497 -33.05981445 326.11865234 C-33.95822556 326.16185608 -34.85663666 326.20505981 -35.78227234 326.24957275 C-38.74302856 326.38809615 -41.70402832 326.51858982 -44.6652832 326.64599609 C-45.68235352 326.68985443 -46.69942383 326.73371277 -47.74731445 326.77890015 C-63.50878398 327.43966614 -79.26548407 327.81795057 -95.04086304 327.88204956 C-97.23915129 327.89130658 -99.43742486 327.90536305 -101.63565063 327.92434692 C-104.71865955 327.94803957 -107.80095035 327.9507967 -110.8840332 327.94677734 C-111.79247482 327.95590149 -112.70091644 327.96502563 -113.6368866 327.97442627 C-119.13556685 327.93470839 -122.94877813 327.10166774 -127.8527832 324.58349609 C-127.33266276 318.69914845 -125.52723525 314.27483765 -123.0402832 308.95849609 C-118.60785795 299.04901508 -115.1600816 288.90778775 -111.8527832 278.58349609 C-111.5947995 277.77851685 -111.3368158 276.9735376 -111.0710144 276.14416504 C-108.1913448 267.13171397 -105.38840433 258.09677323 -102.62475586 249.0480957 C-85.56687746 193.30640467 -64.80572729 138.76893856 -43.69076538 84.46313477 C-34.55186782 61.06292086 -34.55186782 61.06292086 -25.82421875 37.5078125 C-22.73494716 28.91618433 -19.58400138 20.40301213 -15.5402832 12.20849609 C-15.23912598 11.59087402 -14.93796875 10.97325195 -14.62768555 10.33691406 C-11.09993143 3.52770862 -7.87745748 -0.05277951 0 0 Z M52.1472168 87.58349609 C51.90268768 88.42904053 51.65815857 89.27458496 51.40621948 90.14575195 C48.78528771 99.20812613 46.16364898 108.27029558 43.54156494 117.33233643 C42.53160913 120.8228124 41.52181423 124.31333487 40.512146 127.80389404 C35.55017805 144.95735682 30.58798857 162.11064947 25.5690918 179.24755859 C25.23600006 180.38553894 24.90290833 181.52351929 24.5597229 182.69598389 C23.04689517 187.86272257 21.53090384 193.02850118 20.01000977 198.19287109 C19.48535319 199.98191021 18.96077103 201.77097115 18.4362793 203.56005859 C18.19987732 204.35844147 17.96347534 205.15682434 17.71990967 205.97940063 C16.55909859 209.71855609 16.55909859 209.71855609 16.1472168 213.58349609 C40.2372168 213.58349609 64.3272168 213.58349609 89.1472168 213.58349609 C87.93669173 208.13613328 86.73441255 202.89270338 85.19873047 197.55883789 C85.01426015 196.91539964 84.82978983 196.27196138 84.6397295 195.609025 C84.03418146 193.49948759 83.42475304 191.39109398 82.81518555 189.28271484 C82.38196001 187.77713721 81.94894065 186.27150025 81.51611328 184.76580811 C80.36333428 180.7586158 79.20693942 176.75247585 78.04961777 172.74659348 C77.33446198 170.27011371 76.62037 167.79332974 75.90664673 165.31643677 C68.43058795 139.37270367 60.87188432 113.45444474 53.1472168 87.58349609 C52.8172168 87.58349609 52.4872168 87.58349609 52.1472168 87.58349609 Z " fill="#FFFFFF" transform="translate(1408.852783203125,323.41650390625)"/>
<path d="M0 0 C3.9330803 0.01144317 7.8658912 0.00456258 11.79896259 -0.00687695 C114.96790548 -0.26123358 114.96790548 -0.26123358 142.29833984 25.85229492 C164.14099002 48.0411163 173.62234614 81.84148635 173.64282227 112.24853516 C173.0611609 147.99356507 158.68765317 179.32841898 133.92651367 204.79589844 C127.41648497 210.93763932 111.87750114 225.26074219 102.39135742 225.26074219 C107.54962648 231.814485 112.82082 237.89579796 118.83666992 243.67871094 C121.52580722 246.39663105 124.0104966 249.2377735 126.51293945 252.1262207 C129.6719753 255.71595952 132.97386336 259.16881136 136.26635742 262.63574219 C141.37339361 268.03765136 146.44438609 273.45800115 151.38745117 279.01074219 C152.78671052 280.5818404 154.19644195 282.14364683 155.61401367 283.69824219 C161.09410876 289.71412702 166.29513074 295.91725543 171.39135742 302.26074219 C172.48383789 303.57945312 172.48383789 303.57945312 173.59838867 304.92480469 C175.57969285 307.50611165 176.22538899 309.02435768 176.39135742 312.26074219 C175.45364951 315.01141851 174.80928309 316.03374703 172.22705078 317.4362793 C165.21211984 319.82650006 158.24423954 321.50933857 150.95385742 322.82324219 C149.81424561 323.03231201 148.67463379 323.24138184 147.50048828 323.45678711 C145.19949067 323.87422687 142.89749399 324.28620098 140.59448242 324.69238281 C137.79318413 325.18944245 134.99880717 325.7139004 132.20385742 326.24511719 C122.45406968 328.00186248 112.85995746 328.55875689 102.95385742 328.63574219 C101.78540283 328.64968018 100.61694824 328.66361816 99.41308594 328.67797852 C98.31407959 328.6717749 97.21507324 328.66557129 96.08276367 328.65917969 C95.10509033 328.6557959 94.12741699 328.65241211 93.12011719 328.64892578 C87.40153574 327.83542086 83.68411349 323.91062847 79.76635742 319.94824219 C79.24420654 319.42117676 78.72205566 318.89411133 78.18408203 318.35107422 C68.54492615 308.42811411 60.70420255 297.00833287 52.66088867 285.79589844 C34.47466325 260.28468665 34.47466325 260.28468665 12.39135742 238.26074219 C12.42165039 238.86692383 12.45194336 239.47310547 12.4831543 240.09765625 C13.28956242 257.11286769 13.52407791 274.12161636 13.56860352 291.15441895 C13.57543148 293.51421325 13.58567741 295.87400017 13.59936523 298.23376465 C13.61731504 301.59569295 13.62152522 304.95736509 13.62182617 308.31933594 C13.62897141 309.3339238 13.63611664 310.34851166 13.64347839 311.3938446 C13.6135588 320.73456316 13.6135588 320.73456316 11.39135742 325.26074219 C8.26635742 326.68652344 8.26635742 326.68652344 4.39135742 327.57324219 C3.13323242 327.87875 1.87510742 328.18425781 0.57885742 328.49902344 C-10.50997616 330.65802747 -21.73119834 330.50198221 -32.98364258 330.51074219 C-33.87748657 330.51174927 -34.77133057 330.51275635 -35.69226074 330.51379395 C-72.90150061 330.48538612 -72.90150061 330.48538612 -88.26196289 321.75219727 C-90.60864258 319.26074219 -90.60864258 319.26074219 -90.95947266 315.31005859 C-90.85467959 313.61729375 -90.72075952 311.92620458 -90.56567383 310.23730469 C-90.46740044 308.8049498 -90.46740044 308.8049498 -90.36714172 307.34365845 C-90.21701933 305.17907106 -90.05558378 303.01524951 -89.8850708 300.85217285 C-89.59160095 297.03933275 -89.3407232 293.22477523 -89.10229492 289.40820312 C-88.72737787 283.44099798 -88.34151793 277.47465164 -87.94580078 271.50878906 C-84.10042106 213.35097431 -81.03963115 155.15072993 -79.42114258 96.88574219 C-79.40087887 96.1593177 -79.38061516 95.43289322 -79.3597374 94.68445587 C-78.91938942 78.7993719 -78.58210317 62.91664865 -78.40942383 47.02636719 C-78.37785119 44.47867734 -78.34619645 41.93098851 -78.31445312 39.38330078 C-78.2567729 34.68288948 -78.22622195 29.9834405 -78.21337891 25.28271484 C-78.19229393 23.2102781 -78.17045094 21.13784887 -78.14770508 19.06542969 C-78.15284622 18.13579407 -78.15798737 17.20615845 -78.1632843 16.24835205 C-78.1006778 12.24332911 -77.92136397 9.82404575 -75.94995117 6.27294922 C-71.48004383 2.43134585 -66.40320819 1.97964441 -60.67822266 1.63671875 C-59.67881055 1.57524784 -59.67881055 1.57524784 -58.6592083 1.5125351 C-56.4618138 1.38181079 -54.26399533 1.26537984 -52.06567383 1.15136719 C-51.29991343 1.10949532 -50.53415302 1.06762344 -49.74518776 1.02448273 C-33.16507864 0.12880557 -16.60098078 -0.04862234 0 0 Z M14.39135742 74.26074219 C14.39135742 100.33074219 14.39135742 126.40074219 14.39135742 153.26074219 C18.70688315 154.12384733 22.61513542 154.43700741 26.97338867 154.46386719 C27.70522873 154.46956726 28.43706879 154.47526733 29.19108582 154.48114014 C30.74179658 154.49056426 32.29252713 154.49711381 33.84326172 154.50097656 C36.15850562 154.51055457 38.47281076 154.54154639 40.7878418 154.57324219 C56.3395223 154.68416968 74.84827437 153.63910661 86.82885742 142.57324219 C94.56346603 133.95421888 97.80913176 123.6684508 97.23510742 112.11621094 C95.93651114 102.38922536 92.00940447 93.0144743 84.41088867 86.58496094 C64.1025966 71.11355409 38.84578988 74.26074219 14.39135742 74.26074219 Z " fill="#FFFFFF" transform="translate(1743.608642578125,324.7392578125)"/>
<path d="M0 0 C5.79585358 12.53226234 3.20814585 32.18167763 3.31640625 45.70703125 C3.33701629 47.88563901 3.35801371 50.06424314 3.37937927 52.24284363 C3.43418218 57.93577097 3.48377307 63.62873186 3.53222656 69.32171631 C3.5827496 75.14745008 3.63827375 80.97313603 3.69335938 86.79882812 C3.80042872 98.19917776 3.90198419 109.59956918 4 121 C4.74258057 120.05318359 5.48516113 119.10636719 6.25024414 118.13085938 C7.24102871 116.8684743 8.23183384 115.60610537 9.22265625 114.34375 C9.71012329 113.72209961 10.19759033 113.10044922 10.6998291 112.45996094 C17.88023478 103.3141705 25.31430198 94.40278753 32.90625 85.59765625 C34.91945125 83.2621662 36.91928161 80.91643598 38.90625 78.55859375 C44.90167581 71.46289516 51.08929917 64.59356307 57.4855957 57.85595703 C60.7648561 54.40045047 63.98059475 50.90501532 67.140625 47.33984375 C72.34603264 41.53489804 77.82599135 36.02308357 83.34790039 30.52172852 C85.0670867 28.80792767 86.78082583 27.08880918 88.49414062 25.36914062 C96.35631508 17.50107254 104.42231097 10.10971315 113.1875 3.25 C113.77724609 2.78207031 114.36699219 2.31414062 114.97460938 1.83203125 C123.56465711 -4.91387943 123.56465711 -4.91387943 128.125 -5.1875 C133.95996178 -3.98286273 138.48395257 0.36158855 143 4 C143.97066406 4.76570313 144.94132812 5.53140625 145.94140625 6.3203125 C154.57645542 13.33231355 162.39175672 21.20801851 170.25 29.0625 C170.81559631 29.6270993 171.38119263 30.19169861 171.96392822 30.77340698 C173.58895696 32.39876022 175.20953927 34.02838888 176.828125 35.66015625 C177.32023468 36.15347443 177.81234436 36.6467926 178.31936646 37.15505981 C181.42701193 40.30556273 183.69680439 42.73668498 184.75 47.125 C183.5343976 53.40561242 178.8529271 56.14909429 174 60 C166.64397708 65.90284228 159.66575995 72.00644001 152.83349609 78.50830078 C149.72241114 81.46582929 146.59467954 84.36693288 143.328125 87.15234375 C137.85575092 91.90293228 132.78471499 97.06609013 127.67260742 102.19702148 C125.941053 103.933936 124.20421641 105.66543889 122.46679688 107.39648438 C116.76275145 113.09715891 111.22679114 118.85308458 106 125 C104.5867645 126.5448126 103.17059591 128.08695325 101.75 129.625 C96.62102816 135.30538007 91.94124868 141.30733669 87.26611328 147.36083984 C85.45568416 149.70469274 83.63331282 152.03920982 81.8125 154.375 C80.87462181 155.58303982 79.93694924 156.79123955 79 158 C80.58774054 161.55152488 82.72999241 164.38082082 85.125 167.4375 C86.02921402 168.59981862 86.9328161 169.76261346 87.8359375 170.92578125 C88.58762207 171.89185303 88.58762207 171.89185303 89.35449219 172.87744141 C97.83279442 183.81369654 106.19029117 194.84241553 114.375 206 C119.37437697 212.81474274 124.43640692 219.56569645 129.62939453 226.23486328 C131.20581774 228.26506275 132.77276652 230.30242232 134.33984375 232.33984375 C141.34358155 241.42484025 148.50781732 250.31463809 156 259 C159.70794345 263.29982777 163.38559867 267.62111973 167 272 C167.8146875 272.98355469 168.629375 273.96710938 169.46875 274.98046875 C175.4784414 282.65128964 175.4784414 282.65128964 175.9375 287.3125 C174.51048017 292.92544468 170.62867955 295.32082409 165.86010742 298.36694336 C163.4780049 299.74738349 161.0686241 301.04412499 158.625 302.3125 C157.72523438 302.78107422 156.82546875 303.24964844 155.8984375 303.73242188 C145.0028643 309.2323048 133.60682103 313.28162152 122 317 C120.74445312 317.40347656 119.48890625 317.80695313 118.1953125 318.22265625 C111.82841847 319.96423668 105.56645129 320.28027371 99 320.375 C98.18547363 320.38926025 97.37094727 320.40352051 96.53173828 320.41821289 C95.75813965 320.41168701 94.98454102 320.40516113 94.1875 320.3984375 C93.50042969 320.39505371 92.81335937 320.39166992 92.10546875 320.38818359 C85.61020935 319.1906578 82.63317571 314.2371282 79.08789062 309.17919922 C75.92059854 304.35641185 73.05261841 299.38688007 70.24526978 294.34765625 C68.52138169 291.25562064 66.77247388 288.17773581 65.02734375 285.09765625 C64.50867989 284.18030197 64.50867989 284.18030197 63.97953796 283.24441528 C55.23046966 267.78732494 45.79031005 252.81414384 36 238 C35.36513672 237.03481445 34.73027344 236.06962891 34.07617188 235.07519531 C24.19222243 220.05603655 14.25789822 205.0366317 3 191 C3.00222061 192.11181641 3.00444122 193.22363281 3.00672913 194.36914062 C3.02719035 204.95728688 3.04208109 215.54542901 3.05181217 226.1335907 C3.05698351 231.57425779 3.06397369 237.01490865 3.07543945 242.45556641 C3.16079522 284.19859506 3.16079522 284.19859506 2.62109375 298.5 C2.59048355 299.39372314 2.55987335 300.28744629 2.52833557 301.20825195 C2.28250773 306.37511325 1.62795512 311.07346441 0 316 C-17.23627261 325.94400343 -46.80772151 322.18655229 -65.91967773 322.18530273 C-69.71934754 322.18751857 -73.5187395 322.20583197 -77.31835938 322.22460938 C-79.75781152 322.22753914 -82.19726503 322.22952672 -84.63671875 322.23046875 C-85.76075607 322.23765427 -86.8847934 322.24483978 -88.04289246 322.25224304 C-102.30556815 322.21081587 -102.30556815 322.21081587 -107.4375 318 C-110.4398766 314.15695795 -110.14978127 310.82676239 -110.14379883 306.12670898 C-110.14604902 305.31498041 -110.14829922 304.50325184 -110.1506176 303.66692543 C-110.15514099 300.96410618 -110.15066229 298.26140884 -110.14453125 295.55859375 C-110.14358774 294.62239134 -110.14264423 293.68618893 -110.14167213 292.72161674 C-110.11165497 272.43319107 -109.51810644 252.17699175 -108.78842545 231.90353775 C-108.61360573 226.98238621 -108.44961946 222.06087026 -108.28393555 217.1394043 C-107.66413793 198.86164479 -106.99741582 180.58650951 -106.2394371 162.31394577 C-105.95733797 155.48911675 -105.68362235 148.66394987 -105.4128952 141.83866119 C-105.3460808 140.15746582 -105.27882667 138.47628787 -105.21112823 136.79512787 C-104.36307181 115.6781833 -103.89613564 94.59603178 -103.953125 73.4609375 C-103.95554388 72.44025114 -103.95796276 71.41956478 -103.96045494 70.36794853 C-103.9871261 60.38634412 -104.04117526 50.40567497 -104.16544151 40.4247818 C-104.2079848 36.77904915 -104.23573916 33.13328887 -104.26099396 29.48740005 C-104.27692238 27.79356256 -104.30031337 26.09977644 -104.33168793 24.40615463 C-104.37467402 22.08460285 -104.39322724 19.76402226 -104.40649414 17.44213867 C-104.4244252 16.1424968 -104.44235626 14.84285492 -104.46083069 13.50382996 C-103.83156255 8.71932099 -101.85072757 5.51913888 -98.125 2.4609375 C-74.74407178 -9.48740449 -23.00454876 -12.9969202 0 0 Z " fill="#FFFFFF" transform="translate(2050,331)"/>
<path d="M0 0 C2.14210013 -0.0006758 4.28420018 -0.00164811 6.42630005 -0.00289917 C10.90269709 -0.00436635 15.37907406 -0.0022554 19.85546875 0.00244141 C25.52050844 0.00810331 31.18550036 0.00487594 36.85053825 -0.00113106 C41.27448874 -0.0047931 45.69842844 -0.00357201 50.1223793 -0.00100327 C52.20702241 -0.00034766 54.29166658 -0.00111308 56.37630844 -0.00348282 C75.43593499 -0.0203836 94.69525984 -0.00663708 113.6328125 2.3828125 C114.65995361 2.51139648 115.68709473 2.63998047 116.74536133 2.77246094 C140.42300834 5.95570122 161.5355891 13.55675506 176.6328125 32.9453125 C196.7576746 61.53218242 205.62662548 94.05896762 200.21826172 128.85302734 C194.28579941 162.83912126 174.84625611 193.98276838 146.82275391 214.16918945 C136.23866265 221.47406176 124.81026933 227.42130283 112.6328125 231.5703125 C111.98207764 231.79307861 111.33134277 232.01584473 110.66088867 232.24536133 C98.0397092 236.2263946 85.48784566 237.61684751 72.31884766 237.46899414 C70.05725864 237.44517502 67.79684126 237.44849637 65.53515625 237.45507812 C45.38529762 237.41530506 45.38529762 237.41530506 38.8203125 234.1328125 C39.1503125 234.7928125 39.4803125 235.4528125 39.8203125 236.1328125 C40.19604848 240.07781685 40.2550523 244.04803657 40.3828125 248.0078125 C40.4238208 249.27818359 40.4648291 250.54855469 40.50708008 251.85742188 C40.87839602 264.59906476 40.95895059 277.34547475 40.99655151 290.09185791 C41.00404801 292.44908861 41.01471997 294.8063114 41.02859497 297.16351318 C41.04650828 300.51793565 41.05062279 303.87209765 41.05078125 307.2265625 C41.05792145 308.23796295 41.06506165 309.2493634 41.07241821 310.29141235 C41.0564778 315.25947139 40.95566255 319.53547424 38.8203125 324.1328125 C26.35118259 331.42470133 4.85923571 329.47947911 -9.18164062 329.44848633 C-12.17614883 329.44531625 -15.16967463 329.46892627 -18.1640625 329.49414062 C-50.17209004 329.59931252 -50.17209004 329.59931252 -61.1796875 322.1328125 C-63.74979054 318.27765794 -63.44927462 315.12875193 -63.38232422 310.6640625 C-63.37531935 309.81912231 -63.36831448 308.97418213 -63.36109734 308.1036377 C-63.23936404 298.92212112 -62.62060987 289.78658509 -61.9375 280.6328125 C-61.80718826 278.81897072 -61.67747236 277.00508605 -61.54830933 275.19116211 C-61.209819 270.46006202 -60.86326996 265.72958747 -60.51489258 260.99920654 C-60.16765087 256.26415647 -59.82837237 251.52853678 -59.48828125 246.79296875 C-57.52323109 219.50090692 -57.52323109 219.50090692 -56.57324219 207.2734375 C-56.48299774 206.09966553 -56.3927533 204.92589355 -56.29977417 203.71655273 C-56.14348328 201.69493663 -55.98407152 199.67355576 -55.8196106 197.65258789 C-54.34133062 178.49485295 -54.00095549 159.24539892 -53.54893494 140.0424118 C-53.45811931 136.18498378 -53.36465817 132.32762686 -53.27062988 128.47027588 C-53.0879848 120.96497889 -52.90835261 113.45961145 -52.72916412 105.95423126 C-52.48564858 95.75905954 -52.24021623 85.56393615 -51.99217224 75.3688736 C-51.90165458 71.62523981 -51.81311173 67.88156318 -51.72473145 64.13787842 C-51.43591859 52.08526846 -51.10375752 40.03460609 -50.69726562 27.98535156 C-50.66074638 26.84298916 -50.62422714 25.70062675 -50.58660126 24.52364731 C-49.92988972 5.88301472 -49.92988972 5.88301472 -47.1796875 3.1328125 C-32.16526429 -1.12127408 -15.44774896 -0.01736303 0 0 Z M41.8203125 73.1328125 C41.8203125 99.2028125 41.8203125 125.2728125 41.8203125 152.1328125 C49.54898823 153.09889697 56.99207032 153.3749696 64.7578125 153.3828125 C65.79269302 153.38432312 65.79269302 153.38432312 66.84848022 153.38586426 C77.43548505 153.37540963 87.54295543 152.91374441 97.8203125 150.1328125 C99.24730469 149.74996094 99.24730469 149.74996094 100.703125 149.359375 C109.55129804 146.40998399 116.63586824 140.08232763 120.8828125 131.8203125 C125.1748218 122.33512469 125.54548181 110.03797003 122.2578125 100.1328125 C117.73653921 89.77156121 110.45967887 82.53311463 99.87255859 78.36621094 C80.32651242 71.37330542 64.10084674 73.1328125 41.8203125 73.1328125 Z " fill="#FFFFFF" transform="translate(1110.1796875,325.8671875)"/>
<path d="M0 0 C1.83571312 -0.00855011 1.83571312 -0.00855011 3.70851135 -0.01727295 C6.29272616 -0.02666879 8.87695266 -0.03323521 11.46118164 -0.03710938 C15.30963714 -0.04670233 19.15753129 -0.07773204 23.00585938 -0.109375 C40.53950423 -0.18295786 57.55764832 1.01514276 74.94140625 3.203125 C76.07544388 3.32657288 76.07544388 3.32657288 77.23239136 3.45251465 C81.71582492 3.97754367 81.71582492 3.97754367 83.94140625 6.203125 C84.40852287 12.05828888 83.2762081 17.49600024 82.11328125 23.21875 C81.72353379 25.20043598 81.33380467 27.18212557 80.9440918 29.16381836 C80.73924164 30.1921579 80.53439148 31.22049744 80.32333374 32.27999878 C77.21403066 47.89288359 74.12135347 63.46466828 72.25878906 79.28417969 C71.5195398 85.07463878 70.63808465 90.50711048 66.94140625 95.203125 C61.18408934 98.94760103 55.27765777 98.66429162 48.56640625 98.578125 C47.43936279 98.57232422 46.31231934 98.56652344 45.15112305 98.56054688 C35.96397017 98.42583606 26.88538138 97.62933339 17.75390625 96.703125 C6.57343817 95.57320585 -4.50609705 94.87378581 -15.74609375 94.828125 C-16.97932373 94.81458984 -18.21255371 94.80105469 -19.4831543 94.78710938 C-31.79385387 94.84743541 -45.50198613 96.08718348 -54.8671875 104.90625 C-59.64047466 110.17174663 -61.58443053 114.79104189 -61.359375 121.93359375 C-60.7346282 126.64759235 -58.76155445 129.65214477 -55.3515625 132.7578125 C-38.32509394 145.32419273 -15.06747244 146.78017796 5.19140625 149.203125 C33.65845384 152.61959834 60.33556358 159.46830696 79.62890625 182.328125 C95.49305455 203.8794208 97.83605379 233.29916272 94.2578125 259.0625 C90.18436408 282.7454439 79.41042128 306.86821765 59.359375 321.07421875 C13.81558541 350.41092358 -65.24430138 348.6715576 -116.62109375 338.828125 C-123.38502296 337.28736664 -129.5676101 335.69410865 -134.55859375 330.703125 C-137.37256757 326.01316863 -137.24404648 321.43064689 -137.296875 316.06640625 C-137.31136185 314.8421846 -137.31136185 314.8421846 -137.32614136 313.5932312 C-137.35121937 310.90065003 -137.36359785 308.20831104 -137.37109375 305.515625 C-137.37404449 304.59560699 -137.37699524 303.67558899 -137.3800354 302.72769165 C-137.39054231 288.20541626 -136.65390011 273.84287434 -135.24609375 259.390625 C-135.12193588 258.06280502 -135.12193588 258.06280502 -134.99526978 256.7081604 C-134.75538974 254.1979589 -134.49565129 251.69081582 -134.2265625 249.18359375 C-134.15452606 248.4458371 -134.08248962 247.70808044 -134.00827026 246.94796753 C-133.51601974 242.7154327 -132.77192265 239.54215094 -130.05859375 236.203125 C-126.40406706 234.27596921 -122.68126243 235.84295868 -118.92578125 236.8984375 C-117.47764411 237.28646531 -116.02948228 237.67440094 -114.58129883 238.06225586 C-113.8229776 238.26914032 -113.06465637 238.47602478 -112.28335571 238.68917847 C-100.552883 241.87892491 -88.81742113 244.86884655 -76.87109375 247.140625 C-75.90220215 247.32705566 -74.93331055 247.51348633 -73.93505859 247.70556641 C-60.36214107 250.19930873 -47.07800764 251.55841875 -33.29467773 251.51879883 C-30.99350231 251.51562142 -28.69359797 251.53929068 -26.39257812 251.56445312 C-10.90876014 251.63177946 4.65772783 249.97110082 17.00390625 239.640625 C17.96296875 238.4340625 17.96296875 238.4340625 18.94140625 237.203125 C19.53953125 236.48125 20.13765625 235.759375 20.75390625 235.015625 C22.82155789 230.11855532 22.77387565 225.1246214 21.3203125 220.0234375 C16.42133502 208.83199562 4.72225021 203.71061251 -6.00341797 199.42626953 C-24.2675695 192.53405227 -44.09543542 189.69758406 -63.20259094 186.01850891 C-121.76963258 174.73113457 -121.76963258 174.73113457 -138.43359375 152.828125 C-150.88765469 134.41889978 -154.27385898 114.67047921 -150.8046875 92.8984375 C-147.20438935 75.06659429 -139.69040414 59.21326089 -128.05859375 45.203125 C-126.99511719 43.89408203 -126.99511719 43.89408203 -125.91015625 42.55859375 C-99.63722839 11.68553231 -54.61452772 3.49833682 -16.31344604 0.41107178 C-10.87654493 0.06371775 -5.44660448 0.02034681 0 0 Z " fill="#FFFFFF" transform="translate(933.05859375,315.796875)"/>
</svg>