<svg version="1.1" xmlns="http://www.w3.org/2000/svg" viewBox="0 0 2000 2000">
<path d="M0 0 C0.71784668 0.23058105 1.43569336 0.46116211 2.17529297 0.69873047 C18.19451385 5.97966587 33.36826355 14.10324558 47 24 C48.52947266 25.10214844 48.52947266 25.10214844 50.08984375 26.2265625 C86.16882309 52.80006552 112.68545233 92.60100424 119.9233284 137.23558426 C121.12397279 146.33965075 121.39234381 155.39729089 121.41699219 164.56542969 C121.4193102 165.39081914 121.42162822 166.2162086 121.42401648 167.06660986 C121.4095624 184.38197551 119.21212479 200.98245755 116.23095989 218.0035162 C115.52990946 222.04901481 114.86598264 226.10063714 114.19781494 230.15167236 C113.06682204 236.98468645 111.91675988 243.81422742 110.75366211 250.6418457 C109.0116587 260.87814394 107.33191707 271.12412568 105.66601562 281.37304688 C105.11440331 284.76317322 104.56254908 288.15326015 104.01062012 291.54333496 C103.87429436 292.38088585 103.73796861 293.21843675 103.59751177 294.08136797 C102.09710295 303.29329617 100.57895002 312.50228368 99.05859375 321.7109375 C98.85517506 322.94318573 98.85517506 322.94318573 98.6476469 324.20032787 C98.09890281 327.52428125 97.55008799 330.84822292 97.00112772 334.1721406 C95.57434241 342.81165952 94.15070284 351.45169618 92.72717619 360.09175253 C89.82132188 377.72836427 86.91198714 395.36439983 84 413 C57.76277619 419.29591934 31.499917 425.46433417 5.18896484 431.44482422 C0.75500055 432.4527104 -3.67804372 433.4645863 -8.11088562 434.47739601 C-11.5813299 435.26986427 -15.05223341 436.06030516 -18.52328491 436.8501091 C-20.16293969 437.22346205 -21.80244808 437.59745854 -23.44180298 437.97212601 C-25.68990065 438.48561799 -27.93860423 438.99636418 -30.1875 439.50634766 C-31.45980469 439.79595367 -32.73210938 440.08555969 -34.04296875 440.38394165 C-37 441 -37 441 -39 441 C-38.37689372 433.06119755 -37.06624962 425.32088744 -35.60180664 417.49853516 C-35.35431184 416.15998644 -35.1071876 414.82136917 -34.8604002 413.48268986 C-34.32830335 410.60074565 -33.79364149 407.71929367 -33.25695038 404.83820152 C-32.39270281 400.19854319 -31.5342892 395.55781626 -30.67657471 390.91694641 C-29.44753284 384.26995963 -28.21593456 377.62345122 -26.98257446 370.9772644 C-23.93523617 354.55460146 -20.90269498 338.12920173 -17.87034583 321.70376563 C-17.38970363 319.10047837 -16.9089195 316.49721735 -16.42811012 313.89396095 C-10.84232905 283.64779753 -5.32325779 253.39025021 0.11604691 223.11736298 C0.68655551 219.94275562 1.25774256 216.76827094 1.82907104 213.59381104 C2.71073124 208.69377035 3.59076925 203.79344156 4.46915436 198.89281273 C4.78345689 197.13952202 5.09806603 195.38628624 5.41301727 193.63311195 C5.83611353 191.27638677 6.2575631 188.91937348 6.6784668 186.56225586 C6.7992607 185.8907934 6.92005461 185.21933094 7.04450893 184.52752113 C10.66252103 164.19769444 8.80775945 146.67094308 -2.8828125 129.18359375 C-13.54721022 115.04355224 -29.68247436 106.10005089 -47 103 C-48.175625 102.773125 -49.35125 102.54625 -50.5625 102.3125 C-67.25102713 100.79536117 -83.288755 103.82717334 -96.8515625 114.17578125 C-104.58247214 120.93740765 -111.00898165 128.59347578 -116.5703125 137.203125 C-117.33647636 138.37230721 -117.33647636 138.37230721 -118.11811829 139.56510925 C-119.79269084 142.12312031 -121.45875333 144.68655956 -123.125 147.25 C-124.30670255 149.0578115 -125.48908915 150.86517603 -126.67211914 152.67211914 C-129.16451231 156.47988132 -131.65414751 160.28942606 -134.14208984 164.10009766 C-139.92640104 172.95338026 -145.74992872 181.78082922 -151.57244873 190.60900879 C-153.38345567 193.35553769 -155.19313897 196.10293396 -157.00244141 198.85058594 C-162.2944231 206.88457593 -167.598364 214.9100179 -172.94140625 222.91015625 C-179.84165638 233.24221233 -186.66987799 243.62150703 -193.5 254 C-200.80627733 265.10201953 -208.12041012 276.19789339 -215.50259399 287.24961853 C-221.05423629 295.56742034 -226.54693887 303.92392677 -232.04324341 312.27835083 C-241.66727261 326.90624027 -251.32434909 341.51033518 -261.0625 356.0625 C-267.17082562 365.19132776 -273.20386364 374.3511341 -279.01855469 383.67114258 C-282.66538288 389.51017268 -286.45783399 395.24109356 -290.29370117 400.95727539 C-296.9634275 410.90528698 -303.47207752 420.95863603 -310 431 C-311.15228418 432.7708721 -312.30462597 434.54170671 -313.45703125 436.3125 C-316.64102643 441.20638387 -319.82121679 446.10272958 -323 451 C-323.45262207 451.69689941 -323.90524414 452.39379883 -324.37158203 453.11181641 C-332.97808665 466.36704345 -341.49327311 479.6805861 -350 493 C-350.60779297 493.95100586 -351.21558594 494.90201172 -351.84179688 495.88183594 C-359.08987663 507.22648232 -366.26902151 518.61167523 -373.39257812 530.03491211 C-379.28971272 539.48331338 -385.26511648 548.88074346 -391.25732422 558.26904297 C-394.21652438 562.9064222 -397.17106627 567.54676488 -400.125 572.1875 C-400.70628662 573.10072021 -401.28757324 574.01394043 -401.88647461 574.95483398 C-407.12256157 583.1850715 -412.33313307 591.43125592 -417.53662109 599.68212891 C-419.00773073 602.01224484 -420.48193327 604.34037593 -421.95703125 606.66796875 C-428.88239364 617.6006591 -435.74389179 628.57150012 -442.52197266 639.59619141 C-443.45750669 641.1177091 -444.39449792 642.63833259 -445.33349609 644.15771484 C-462.18691642 671.46410268 -471.93004833 699.65570916 -464.54345703 731.85009766 C-457.03622203 761.54853048 -437.80168318 787.89301076 -411.62890625 803.8671875 C-393.88962455 814.39796066 -375.50614807 819.9980646 -354.8125 820.3125 C-354.10754395 820.33030518 -353.40258789 820.34811035 -352.67626953 820.36645508 C-334.05572625 820.33982504 -315.41615606 814.4014136 -297.42733765 810.11074829 C-288.84847806 808.06568717 -280.26256795 806.05053996 -271.67578125 804.0390625 C-270.78594858 803.83057238 -269.89611591 803.62208225 -268.97931862 803.40727425 C-211.54131952 789.96389775 -153.79902515 777.7833596 -96 766 C-94.73530128 765.74200497 -94.73530128 765.74200497 -93.4450531 765.47879791 C-39.93536135 754.56447804 13.65569489 744.16287085 67.3729248 734.31982422 C68.09851215 734.18681852 68.8240995 734.05381283 69.57167435 733.91677666 C70.9845327 733.65792842 72.39745185 733.3994118 73.81043625 733.14125252 C77.33748795 732.49532822 80.86184753 731.83773612 84.38323975 731.16159058 C85.09947699 731.02475829 85.81571423 730.88792601 86.55365562 730.74694729 C88.51615118 730.37107597 90.47799508 729.99180672 92.43978882 729.61228943 C97.94628738 728.66527514 103.42364614 728.24686983 109 728 C109.886875 727.93554688 110.77375 727.87109375 111.6875 727.8046875 C128.81771992 727.03994554 144.65683679 734.5194268 157.43359375 745.4921875 C170.95158274 758.7015466 177.78305675 774.80104521 178.25 793.5 C178.07182012 807.42772698 175.04176057 818.43039676 168.34277344 830.55712891 C166.80734287 833.35049587 165.31312479 836.16410027 163.8203125 838.98046875 C157.69582976 850.49793254 151.40947429 861.91727805 144.95947266 873.25537109 C140.8168036 880.53774722 136.74339934 887.85649359 132.6875 895.1875 C125.90758537 907.42493106 118.99257533 919.58133336 112.03015137 931.71534729 C109.66831948 935.83188377 107.31272628 939.95193707 104.9609375 944.07421875 C92.36235649 966.15587543 79.71900711 988.20842021 66.73925781 1010.06884766 C64.8416208 1013.26691476 62.9478982 1016.46727945 61.0546875 1019.66796875 C38.9874104 1056.9692237 16.67359594 1094.15141325 -6.56445312 1130.73779297 C-9.0497479 1134.65424558 -11.52407707 1138.57761894 -14 1142.5 C-15.00129568 1144.08463946 -16.00259776 1145.66927488 -17.00390625 1147.25390625 C-18.99449498 1150.40529388 -20.98114814 1153.55911301 -22.96484375 1156.71484375 C-27.90855739 1164.57349685 -32.88812037 1172.40637662 -37.953125 1180.1875 C-38.78616402 1181.46795448 -38.78616402 1181.46795448 -39.6360321 1182.77427673 C-45.70896133 1192.10073634 -51.81202704 1201.40732586 -57.93139648 1210.70336914 C-59.19556877 1212.62481258 -60.45857179 1214.54702578 -61.72045898 1216.4699707 C-74.17816624 1235.45306754 -74.17816624 1235.45306754 -80.3737793 1243.78686523 C-82.4150644 1246.56486395 -84.310852 1249.42576674 -86.20898438 1252.30249023 C-96.22209408 1267.40736469 -96.22209408 1267.40736469 -104 1270 C-110.83452144 1270.74050765 -116.35989636 1270.09847531 -122 1266 C-125.51176856 1262.65421055 -127.77995506 1259.46547942 -128.2215271 1254.51791382 C-128.38679663 1246.60253383 -126.96112379 1240.08100651 -124.4765625 1232.6015625 C-124.10396301 1231.43388336 -123.73136353 1230.26620422 -123.34747314 1229.06314087 C-122.33465493 1225.90251414 -121.30651731 1222.74775233 -120.27022552 1219.59480286 C-119.17639812 1216.2554676 -118.10171713 1212.90996697 -117.02392578 1209.56542969 C-114.58792589 1202.02146209 -112.1184762 1194.48866631 -109.64285278 1186.95762634 C-108.62812558 1183.86756161 -107.61802628 1180.77598542 -106.60742188 1177.68457031 C-96.22121522 1145.95078513 -85.32817835 1114.40917743 -74 1083 C-73.63066345 1081.97449036 -73.2613269 1080.94898071 -72.88079834 1079.89239502 C-55.7315656 1032.2870412 -37.76167634 984.99309671 -19 938 C-18.35741108 936.38932722 -17.71483321 934.77865004 -17.07226562 933.16796875 C-13.52286992 924.27358965 -9.96526706 915.38252119 -6.40087891 906.49414062 C-4.59793599 901.9971523 -2.79855448 897.49874475 -1 893 C-2.08189102 893.30505966 -3.16378204 893.61011932 -4.27845764 893.92442322 C-15.39658006 897.04482247 -26.5518828 899.98251786 -37.74609375 902.81640625 C-39.53130342 903.26971032 -41.31649473 903.72308668 -43.10166931 904.17652893 C-48.87921963 905.64272056 -54.65819543 907.10324053 -60.4375 908.5625 C-61.43596199 908.81470055 -62.43442398 909.06690109 -63.4631424 909.32674408 C-122.15279541 924.14735169 -180.95904488 938.38560514 -239.99945831 951.74434662 C-243.01508065 952.4267692 -246.03046245 953.11024748 -249.0458374 953.79376221 C-296.39779663 964.51679495 -342.35962466 974.40873098 -391 966 C-391.9398877 965.83902832 -392.87977539 965.67805664 -393.84814453 965.51220703 C-438.85607676 957.4659667 -482.02420528 936.47440889 -515.52734375 905.28515625 C-517.59860099 903.37096117 -519.70914701 901.55412389 -521.875 899.75 C-542.44159249 881.73852389 -558.19963592 857.94717678 -571 834 C-571.34272949 833.36513672 -571.68545898 832.73027344 -572.03857422 832.07617188 C-600.32512016 779.26739773 -608.11704212 714.39395891 -591.4609375 656.72265625 C-582.57470582 627.44492622 -569.21713588 600.22154938 -550.51757812 575.95092773 C-546.67681708 570.96309798 -543.0887431 565.83926532 -539.5625 560.625 C-535.3660899 554.42670714 -531.09506391 548.30006273 -526.6875 542.25 C-520.97131032 534.39831167 -515.40995532 526.44568293 -509.8762207 518.46459961 C-505.89982234 512.72995265 -501.90638668 507.00862583 -497.875 501.3125 C-482.52470606 479.61482713 -467.32347583 457.80862194 -452.29443359 435.88720703 C-450.03252368 432.58947719 -447.76591903 429.29497573 -445.5 426 C-444.57811793 424.65885903 -443.65624291 423.31771321 -442.734375 421.9765625 C-440.95428239 419.38722212 -439.17298864 416.79871508 -437.390625 414.2109375 C-429.55624041 402.83284338 -421.77418866 391.41928489 -414 380 C-413.34257813 379.03449219 -412.68515625 378.06898438 -412.0078125 377.07421875 C-392.14831547 347.90316767 -372.38949557 318.66459077 -352.66529846 289.40193176 C-348.29444247 282.91809826 -343.9195621 276.43699305 -339.54296875 269.95703125 C-327.82737864 252.60798964 -316.13693182 235.24366474 -304.54486084 217.8117981 C-296.96337816 206.41230597 -289.31898262 195.05669418 -281.64941406 183.71630859 C-271.16355855 168.21051002 -260.77574841 152.64586111 -250.5 137 C-240.51029004 121.79031892 -230.43034601 106.64531766 -220.25 91.5625 C-219.64357666 90.66362061 -219.03715332 89.76474121 -218.41235352 88.83862305 C-214.61901869 83.21838747 -210.81461089 77.60581389 -207 72 C-206.55516266 71.34474335 -206.11032532 70.68948669 -205.65200806 70.01437378 C-201.41212102 63.77726795 -197.17640774 57.60687549 -192.1875 51.9375 C-191.68524902 51.36153076 -191.18299805 50.78556152 -190.66552734 50.19213867 C-159.45398671 14.79605483 -117.1573041 -6.36347072 -69.9375 -9.6875 C-45.87546479 -11.05287804 -22.85906361 -7.34706386 0 0 Z " fill="#FFFFFF" transform="translate(1095,264)"/>
<path d="M0 0 C4.71237559 2.68052134 7.95035893 6.16357679 9.6875 11.375 C10.536287 20.4181811 8.74436003 28.00507968 5.91015625 36.53515625 C5.31379364 38.39906509 5.31379364 38.39906509 4.7053833 40.30062866 C3.63098638 43.65617901 2.53498599 47.00428375 1.43405533 50.35120773 C0.27719565 53.87950042 -0.86053622 57.41396233 -2.0012207 60.94750977 C-4.53238135 68.77389268 -7.09579988 76.58949897 -9.66500854 84.40345764 C-10.66465743 87.44728179 -11.65934037 90.49272529 -12.65429688 93.53808594 C-22.7220073 124.32288608 -33.32910055 154.90566656 -44.3125 185.375 C-44.68290405 186.40371216 -45.05330811 187.43242432 -45.43493652 188.49230957 C-63.19123851 237.78692217 -81.88082875 286.71752249 -101.3125 335.375 C-102.07357684 337.2818974 -102.83464431 339.18879853 -103.59570312 341.09570312 C-108.15870894 352.52585061 -112.73188639 363.95189888 -117.3125 375.375 C-115.68966347 374.91741051 -115.68966347 374.91741051 -114.03404236 374.45057678 C-102.91591994 371.33017753 -91.7606172 368.39248214 -80.56640625 365.55859375 C-78.78119658 365.10528968 -76.99600527 364.65191332 -75.21083069 364.19847107 C-69.43328037 362.73227944 -63.65430457 361.27175947 -57.875 359.8125 C-56.37730701 359.43419918 -56.37730701 359.43419918 -54.8493576 359.04825592 C3.84029541 344.22764831 62.64654488 329.98939486 121.68695831 316.63065338 C124.70258065 315.9482308 127.71796245 315.26475252 130.7333374 314.58123779 C178.08529663 303.85820505 224.04712466 293.96626902 272.6875 302.375 C273.6273877 302.53597168 274.56727539 302.69694336 275.53564453 302.86279297 C320.54357676 310.9090333 363.71170528 331.90059111 397.21484375 363.08984375 C399.28610099 365.00403883 401.39664701 366.82087611 403.5625 368.625 C424.12909249 386.63647611 439.88713592 410.42782322 452.6875 434.375 C453.03022949 435.00986328 453.37295898 435.64472656 453.72607422 436.29882812 C482.22005024 489.49485804 490.03900576 555.36359651 472.67578125 613.30859375 C462.93920347 644.19958753 447.99264879 670.64372903 429.04296875 696.73828125 C419.07327102 710.48416291 409.41745865 724.45914312 399.6875 738.375 C393.03706546 747.88649935 386.38648226 757.39760202 379.6875 766.875 C364.30448896 788.64162854 349.0535099 810.50433771 333.98193359 832.48779297 C331.72002368 835.78552281 329.45341903 839.08002427 327.1875 842.375 C326.26561793 843.71614097 325.34374291 845.05728679 324.421875 846.3984375 C322.64178239 848.98777788 320.86048864 851.57628492 319.078125 854.1640625 C306.26839516 872.76798857 293.58139967 891.45614588 280.88671875 910.13867188 C279.44168147 912.26516101 277.99637711 914.39146868 276.55078125 916.51757812 C263.12056881 936.27148805 249.76327966 956.07435532 236.41319275 975.88247681 C231.99615359 982.43556284 227.57514896 988.98596079 223.15234375 995.53515625 C211.84825035 1012.2765808 200.55890536 1029.02656787 189.37530518 1045.8487854 C183.91452619 1054.06169889 178.42700358 1062.25567382 172.90234375 1070.42578125 C172.31260773 1071.29794281 171.7228717 1072.17010437 171.11526489 1073.06869507 C169.90075483 1074.86465677 168.6862262 1076.66060592 167.47167969 1078.45654297 C156.3314781 1094.93119857 145.31252094 1111.47932571 134.39605713 1128.10302734 C122.20180765 1146.66652595 109.80335668 1165.08883586 97.34510803 1183.47593689 C94.8134516 1187.21570982 92.29217189 1190.96152161 89.79858398 1194.72680664 C89.34762863 1195.40740646 88.89667328 1196.08800629 88.43205261 1196.78923035 C87.60765218 1198.03592719 86.78534215 1199.28401057 85.96577454 1200.53388977 C79.79827279 1209.86557852 72.29770184 1218.20502849 64.6875 1226.375 C64.00300781 1227.11363281 63.31851562 1227.85226562 62.61328125 1228.61328125 C32.07793151 1260.39036425 -12.07291891 1276.9711065 -55.55859375 1278.3359375 C-106.32588572 1279.15772594 -153.35040151 1258.97401759 -189.671875 1224.01171875 C-220.41408871 1193.714927 -239.1923997 1151.78494945 -239.70863724 1108.57419968 C-239.71834636 1106.98600435 -239.72522229 1105.39778957 -239.72949219 1103.80957031 C-239.7318102 1102.98418086 -239.73412822 1102.1587914 -239.73651648 1101.30839014 C-239.7220624 1083.99302449 -237.52462479 1067.39254245 -234.54345989 1050.3714838 C-233.84240946 1046.32598519 -233.17848264 1042.27436286 -232.51031494 1038.22332764 C-231.37932204 1031.39031355 -230.22925988 1024.56077258 -229.06616211 1017.7331543 C-227.3241587 1007.49685606 -225.64441707 997.25087432 -223.97851562 987.00195312 C-223.42690331 983.61182678 -222.87504908 980.22173985 -222.32312012 976.83166504 C-222.18679436 975.99411415 -222.05046861 975.15656325 -221.91001177 974.29363203 C-220.40960295 965.08170383 -218.89145002 955.87271632 -217.37109375 946.6640625 C-217.23548129 945.84256368 -217.09986883 945.02106485 -216.9601469 944.17467213 C-216.41140281 940.85071875 -215.86258799 937.52677708 -215.31362772 934.2028594 C-213.88684241 925.56334048 -212.46320284 916.92330382 -211.03967619 908.28324747 C-208.13382188 890.64663573 -205.22448714 873.01060017 -202.3125 855.375 C-186.71919724 851.7202204 -171.12501332 848.06922844 -155.52976513 844.42276001 C-148.28886989 842.72960627 -141.0482701 841.03520795 -133.80834961 839.33789062 C-127.49905265 837.85875076 -121.18921712 836.38193473 -114.8787201 834.90792274 C-111.5364771 834.1271524 -108.19451797 833.34521019 -104.85320091 832.56048584 C-101.12587469 831.68515124 -97.39734821 830.81500463 -93.66870117 829.9453125 C-92.00174698 829.55258148 -92.00174698 829.55258148 -90.30111694 829.1519165 C-88.78038322 828.79852203 -88.78038322 828.79852203 -87.22892761 828.43798828 C-86.34677173 828.23150665 -85.46461584 828.02502502 -84.55572796 827.81228638 C-82.3125 827.375 -82.3125 827.375 -79.3125 827.375 C-79.93560628 835.31380245 -81.24625038 843.05411256 -82.71069336 850.87646484 C-82.95818816 852.21501356 -83.2053124 853.55363083 -83.4520998 854.89231014 C-83.98419665 857.77425435 -84.51885851 860.65570633 -85.05554962 863.53679848 C-85.91979719 868.17645681 -86.7782108 872.81718374 -87.63592529 877.45805359 C-88.86496716 884.10504037 -90.09656544 890.75154878 -91.32992554 897.3977356 C-94.37726383 913.82039854 -97.40980502 930.24579827 -100.44215417 946.67123437 C-100.92279637 949.27452163 -101.4035805 951.87778265 -101.88438988 954.48103905 C-107.47017095 984.72720247 -112.98924221 1014.98474979 -118.42854691 1045.25763702 C-118.99905551 1048.43224438 -119.57024256 1051.60672906 -120.14157104 1054.78118896 C-121.02323124 1059.68122965 -121.90326925 1064.58155844 -122.78165436 1069.48218727 C-123.09595689 1071.23547798 -123.41056603 1072.98871376 -123.72551727 1074.74188805 C-124.14861353 1077.09861323 -124.5700631 1079.45562652 -124.9909668 1081.81274414 C-125.1117607 1082.4842066 -125.23255461 1083.15566906 -125.35700893 1083.84747887 C-128.97502103 1104.17730556 -127.12025945 1121.70405692 -115.4296875 1139.19140625 C-104.76528978 1153.33144776 -88.63002564 1162.27494911 -71.3125 1165.375 C-70.136875 1165.601875 -68.96125 1165.82875 -67.75 1166.0625 C-51.06147287 1167.57963883 -35.023745 1164.54782666 -21.4609375 1154.19921875 C-18.95252267 1152.00530306 -16.60809123 1149.79121343 -14.3125 1147.375 C-13.83425781 1146.88725098 -13.35601563 1146.39950195 -12.86328125 1145.89697266 C-6.32151685 1138.8782046 -1.38864069 1130.64518302 3.8125 1122.625 C4.8992869 1120.95950603 5.98678686 1119.29447717 7.07495117 1117.62988281 C9.39413514 1114.08151312 11.7106993 1110.53145222 14.02587891 1106.98046875 C19.69666565 1098.29064298 25.41206138 1089.63016381 31.12518311 1080.96813965 C32.94724569 1078.20500134 34.76799202 1075.4410003 36.58837891 1072.67675781 C41.9194708 1064.58421051 47.26238191 1056.50010207 52.64453125 1048.44140625 C60.1168373 1037.25278832 67.5049658 1026.00880032 74.90039062 1014.76928711 C82.06627469 1003.88023405 89.25588196 993.0080379 96.4941864 982.16697693 C102.82632021 972.67834859 109.10217849 963.15289971 115.375 953.625 C116.63065113 951.71863866 117.88634877 949.81230795 119.14208984 947.90600586 C121.71890303 943.99402297 124.29537161 940.08181345 126.87158203 936.16943359 C130.5473283 930.58744206 134.22471721 925.00653409 137.90234375 919.42578125 C160.2711461 885.47855577 182.55303606 851.47561281 204.6875 817.375 C205.14012207 816.67810059 205.59274414 815.98120117 206.05908203 815.26318359 C214.66558665 802.00795655 223.18077311 788.6944139 231.6875 775.375 C232.29529297 774.42399414 232.90308594 773.47298828 233.52929688 772.49316406 C240.77737663 761.14851768 247.95652151 749.76332477 255.08007812 738.34008789 C260.97721272 728.89168662 266.95261648 719.49425654 272.94482422 710.10595703 C275.90402438 705.4685778 278.85856627 700.82823512 281.8125 696.1875 C282.39378662 695.27427979 282.97507324 694.36105957 283.57397461 693.42016602 C288.32361027 685.95454715 293.05391488 678.47687234 297.7734375 670.9921875 C299.69032299 667.95253653 301.61231367 664.91622035 303.5390625 661.8828125 C311.44979199 649.4172176 319.20719974 636.85965757 326.91064453 624.26513672 C328.42407211 621.80347751 329.95376562 619.35374843 331.49609375 616.91015625 C346.61770215 592.77009164 352.65113432 564.50718447 346.23095703 536.52490234 C338.72372203 506.82646952 319.48918318 480.48198924 293.31640625 464.5078125 C275.57712455 453.97703934 257.19364807 448.3769354 236.5 448.0625 C235.79504395 448.04469482 235.09008789 448.02688965 234.36376953 448.00854492 C217.86178205 448.03214512 201.32877071 452.98227706 185.4152832 456.81030273 C178.39302949 458.49828286 171.36298364 460.15337343 164.33203125 461.8046875 C163.570116 461.98365822 162.80820076 462.16262894 162.02319717 462.34702301 C101.60815646 476.51786408 40.89772166 489.51464241 -19.90978241 501.88576508 C-22.38014911 502.38877453 -24.85029201 502.89286993 -27.32037354 503.39727783 C-73.04702814 512.73408727 -118.83555552 521.71480574 -164.70992279 530.29786682 C-168.10228613 530.93324576 -171.49421007 531.57092586 -174.88604736 532.20910645 C-180.2241833 533.21272375 -185.5637092 534.2085946 -190.90442848 535.19836998 C-192.86572438 535.56276247 -194.8266163 535.92933749 -196.78705406 536.29831886 C-206.95872971 538.21014549 -216.95116187 539.89717986 -227.3125 540.375 C-228.71620598 540.46262352 -228.71620598 540.46262352 -230.14826965 540.55201721 C-247.14008859 541.48150839 -263.12345389 533.72321645 -275.74609375 522.8828125 C-289.26408274 509.6734534 -296.09555675 493.57395479 -296.5625 474.875 C-296.38432012 460.94727302 -293.35426057 449.94460324 -286.65527344 437.81787109 C-285.11984287 435.02450413 -283.62562479 432.21089973 -282.1328125 429.39453125 C-276.00832976 417.87706746 -269.72197429 406.45772195 -263.27197266 395.11962891 C-259.1293036 387.83725278 -255.05589934 380.51850641 -251 373.1875 C-244.22008537 360.95006894 -237.30507533 348.79366664 -230.34265137 336.65965271 C-227.98081949 332.54311624 -225.62522232 328.42306518 -223.2734375 324.30078125 C-211.13057421 303.01743826 -198.96010471 281.75401376 -186.43359375 260.69335938 C-182.962177 254.85506757 -179.50614612 249.00902529 -176.0859375 243.140625 C-168.00984713 229.28737431 -159.79221847 215.54370841 -151.34765625 201.91015625 C-147.4670245 195.64144342 -143.64320121 189.33952251 -139.82757568 183.03115845 C-132.38195849 170.72406562 -124.81215865 158.49902464 -117.15966797 146.31933594 C-115.27975356 143.32280307 -113.40642552 140.32225078 -111.53515625 137.3203125 C-105.45447104 127.56614117 -99.35295024 117.825865 -93.1875 108.125 C-92.68661865 107.33593262 -92.1857373 106.54686523 -91.66967773 105.73388672 C-81.39889353 89.61138822 -70.89164753 73.63838577 -60.38110352 57.67163086 C-59.11693123 55.75018742 -57.85392821 53.82797422 -56.59204102 51.9050293 C-44.13433376 32.92193246 -44.13433376 32.92193246 -37.9387207 24.58813477 C-35.8974356 21.81013605 -34.001648 18.94923326 -32.10351562 16.07250977 C-24.46293757 4.54662264 -15.20494293 -6.96652328 0 0 Z " fill="#FFFFFF" transform="translate(1023.3125,467.625)"/>
</svg>